<?xml version="1.0" encoding="UTF-8"?>
<!DOCTYPE svg PUBLIC "-//W3C//DTD SVG 1.1//EN" "http://www.w3.org/Graphics/SVG/1.1/DTD/svg11.dtd">
<svg xmlns="http://www.w3.org/2000/svg" version="1.1" width="500px" height="500px" style="shape-rendering:geometricPrecision; text-rendering:geometricPrecision; image-rendering:optimizeQuality; fill-rule:evenodd; clip-rule:evenodd" xmlns:xlink="http://www.w3.org/1999/xlink">
<g><path style="opacity:1" fill="#fefefe" d="M -0.5,-0.5 C 166.167,-0.5 332.833,-0.5 499.5,-0.5C 499.5,166.167 499.5,332.833 499.5,499.5C 332.833,499.5 166.167,499.5 -0.5,499.5C -0.5,332.833 -0.5,166.167 -0.5,-0.5 Z"/></g>
<g><path style="opacity:1" fill="#393d3f" d="M 231.5,110.5 C 290.295,106.152 336.128,128.152 369,176.5C 398.004,229.406 396.004,281.073 363,331.5C 324.227,379.65 274.394,397.484 213.5,385C 155.444,366.614 121.277,327.447 111,267.5C 105.618,208.439 127.451,162.606 176.5,130C 193.655,119.784 211.988,113.284 231.5,110.5 Z"/></g>
<g><path style="opacity:1" fill="#fcfcfc" d="M 238.5,113.5 C 308.998,112.964 356.165,145.631 380,211.5C 393.664,267.826 379.164,315.326 336.5,354C 293.729,386.484 247.063,393.484 196.5,375C 136.773,345.071 109.606,296.571 115,229.5C 125.848,173.989 158.015,137.156 211.5,119C 220.554,116.739 229.554,114.905 238.5,113.5 Z"/></g>
<g><path style="opacity:1" fill="#3c4042" d="M 248.5,125.5 C 249.822,125.33 250.989,125.663 252,126.5C 254.148,133.76 255.982,141.093 257.5,148.5C 262.249,142.676 266.249,136.343 269.5,129.5C 270.833,128.167 272.167,128.167 273.5,129.5C 269.483,139.557 263.983,148.557 257,156.5C 255.347,156.18 254.347,155.18 254,153.5C 251.527,144.278 249.694,134.945 248.5,125.5 Z"/></g>
<g><path style="opacity:1" fill="#393d3f" d="M 211.5,131.5 C 212.833,131.5 214.167,131.5 215.5,131.5C 214.409,135.615 213.409,139.781 212.5,144C 213.861,149.249 215.527,154.416 217.5,159.5C 217.281,161.915 215.948,162.915 213.5,162.5C 212.302,157.762 210.802,153.095 209,148.5C 205.31,145.309 201.477,142.309 197.5,139.5C 197.919,138.328 198.585,137.328 199.5,136.5C 202.619,138.726 205.952,140.393 209.5,141.5C 209.547,138.031 210.213,134.698 211.5,131.5 Z"/></g>
<g><path style="opacity:1" fill="#363a3c" d="M 295.5,135.5 C 296.833,135.5 298.167,135.5 299.5,135.5C 299.466,145.845 299.133,156.179 298.5,166.5C 297.167,166.5 295.833,166.5 294.5,166.5C 294.777,163.552 294.444,160.719 293.5,158C 290,156.833 286.5,155.667 283,154.5C 281.037,155.625 279.204,156.959 277.5,158.5C 276.28,158.113 275.613,157.28 275.5,156C 279.176,151.326 283.176,146.993 287.5,143C 290.997,141.137 293.664,138.637 295.5,135.5 Z"/></g>
<g><path style="opacity:1" fill="#eaebeb" d="M 293.5,143.5 C 295.439,144.014 296.439,145.347 296.5,147.5C 295.534,154.267 292.534,155.267 287.5,150.5C 289.523,148.147 291.523,145.814 293.5,143.5 Z"/></g>
<g><path style="opacity:1" fill="#393d3f" d="M 182.5,145.5 C 184.144,145.286 185.644,145.62 187,146.5C 191.748,152.994 196.248,159.661 200.5,166.5C 200,167.5 199.5,168.5 199,169.5C 195.457,164.193 191.457,159.193 187,154.5C 186.468,159.751 186.968,164.918 188.5,170C 187.941,172.188 186.607,172.854 184.5,172C 181.251,169.457 177.751,167.291 174,165.5C 175.324,170.448 177.991,174.782 182,178.5C 182.783,180.319 182.283,181.652 180.5,182.5C 174.232,175.469 168.566,167.969 163.5,160C 164.409,157.681 166.075,157.014 168.5,158C 173.21,160.105 177.71,162.605 182,165.5C 181.295,158.792 181.462,152.126 182.5,145.5 Z"/></g>
<g><path style="opacity:1" fill="#393d3e" d="M 320.5,147.5 C 323.359,147.801 324.693,149.467 324.5,152.5C 323.694,159.589 322.861,166.589 322,173.5C 324.285,171.093 326.451,168.593 328.5,166C 329.833,165.333 331.167,165.333 332.5,166C 329.408,172.592 324.741,177.759 318.5,181.5C 316.112,181.288 315.112,179.955 315.5,177.5C 316.806,170.784 317.972,164.117 319,157.5C 314.978,162.021 311.144,166.688 307.5,171.5C 305.505,172.89 304.172,172.39 303.5,170C 309.049,162.398 314.716,154.898 320.5,147.5 Z"/></g>
<g><path style="opacity:1" fill="#3b3e40" d="M 334.5,157.5 C 338.016,159.118 338.183,160.785 335,162.5C 331.927,161.252 331.76,159.585 334.5,157.5 Z"/></g>
<g><path style="opacity:1" fill="#444849" d="M 240.5,168.5 C 242.199,168.34 243.866,168.506 245.5,169C 248.064,170.062 249.731,171.896 250.5,174.5C 250.167,175.167 249.833,175.833 249.5,176.5C 248.376,175.086 247.376,173.586 246.5,172C 241.293,170.391 238.293,172.224 237.5,177.5C 234.956,177.104 232.789,177.771 231,179.5C 230.833,179 230.667,178.5 230.5,178C 234.298,175.37 237.631,172.203 240.5,168.5 Z"/></g>
<g><path style="opacity:1" fill="#434749" d="M 267.5,170.5 C 275.3,171.603 275.3,172.769 267.5,174C 265.771,175.789 265.104,177.956 265.5,180.5C 263.143,180.337 260.81,180.503 258.5,181C 257.853,182.609 257.02,184.109 256,185.5C 251.333,181.5 246.667,181.5 242,185.5C 240.813,187.044 240.48,188.711 241,190.5C 242.781,194.07 245.448,196.737 249,198.5C 250.377,199.964 250.377,200.964 249,201.5C 245.531,198.656 242.364,198.989 239.5,202.5C 239.167,202 238.833,201.5 238.5,201C 239.5,199.333 240.5,197.667 241.5,196C 240.899,194.395 239.899,193.062 238.5,192C 233.788,190.557 229.955,191.723 227,195.5C 224.736,192.48 221.903,191.813 218.5,193.5C 216.733,187.206 213.066,185.873 207.5,189.5C 207.167,189.167 206.833,188.833 206.5,188.5C 208.14,186.36 210.307,185.36 213,185.5C 217.379,188.298 222.212,190.298 227.5,191.5C 230.469,189.333 233.803,187.999 237.5,187.5C 241.292,179.467 247.125,177.467 255,181.5C 256.845,178.817 259.345,177.15 262.5,176.5C 263.497,173.845 265.164,171.845 267.5,170.5 Z"/></g>
<g><path style="opacity:1" fill="#3d4143" d="M 340.5,243.5 C 341.167,242.833 341.833,242.167 342.5,241.5C 342.756,243.912 341.756,245.579 339.5,246.5C 336.48,243.645 333.313,240.979 330,238.5C 330.155,244.248 327.655,248.248 322.5,250.5C 321.169,247.951 322.002,246.284 325,245.5C 326.373,243.305 326.706,240.971 326,238.5C 322.825,242.008 319.325,245.175 315.5,248C 318.043,251.2 321.209,253.7 325,255.5C 325.591,256.483 325.257,257.15 324,257.5C 318.117,254.953 313.45,250.953 310,245.5C 308.853,252.217 305.186,256.884 299,259.5C 297.743,259.15 297.409,258.483 298,257.5C 300.447,254.968 303.114,252.634 306,250.5C 306.167,249.833 306.333,249.167 306.5,248.5C 306.267,247.068 305.6,246.568 304.5,247C 303.128,248.242 302.128,249.742 301.5,251.5C 294.622,253.822 292.622,258.489 295.5,265.5C 298.995,263.135 299.328,263.802 296.5,267.5C 298.078,270.25 297.745,272.583 295.5,274.5C 294.274,276.942 292.941,279.276 291.5,281.5C 291.421,280.07 291.754,278.736 292.5,277.5C 290.887,276.573 289.221,275.739 287.5,275C 290.823,274.517 293.49,273.017 295.5,270.5C 295,270.167 294.5,269.833 294,269.5C 289.52,272.161 284.686,273.494 279.5,273.5C 279.47,272.503 279.97,271.836 281,271.5C 285.142,270.064 289.308,268.73 293.5,267.5C 292.593,264.579 292.26,261.579 292.5,258.5C 290.167,258.5 287.833,258.5 285.5,258.5C 285.5,257.5 285.5,256.5 285.5,255.5C 287.604,255.799 289.604,255.466 291.5,254.5C 291.291,253.914 290.957,253.414 290.5,253C 285.479,253.392 280.479,253.225 275.5,252.5C 268.817,244.674 270.484,240.508 280.5,240C 274.072,240.604 267.572,241.104 261,241.5C 253.173,240.953 245.34,240.619 237.5,240.5C 231.974,240.179 226.64,240.512 221.5,241.5C 217.154,241.334 212.821,241.501 208.5,242C 207.004,245.149 205.504,248.316 204,251.5C 204.065,257.713 203.232,263.713 201.5,269.5C 203.396,270.466 205.396,270.799 207.5,270.5C 207.33,269.178 207.663,268.011 208.5,267C 214.985,265.348 220.485,266.848 225,271.5C 233.661,273.001 242.328,273.335 251,272.5C 252.168,271.491 253.335,270.491 254.5,269.5C 254.481,272.566 254.648,275.899 255,279.5C 256.666,282.379 259.166,283.212 262.5,282C 263.471,280.519 264.804,279.685 266.5,279.5C 266.141,281.371 265.141,282.871 263.5,284C 260.408,284.736 257.408,284.569 254.5,283.5C 253.406,281.388 252.406,279.221 251.5,277C 241.843,275.982 232.176,275.149 222.5,274.5C 222.082,273.778 221.416,273.278 220.5,273C 221.833,271.16 221.666,270.66 220,271.5C 217.274,269.036 214.107,268.203 210.5,269C 209.748,269.671 209.414,270.504 209.5,271.5C 206.435,272.818 203.269,272.818 200,271.5C 199.28,269.888 199.446,268.388 200.5,267C 198.107,264.972 196.274,262.805 195,260.5C 197.179,261.396 199.012,262.729 200.5,264.5C 201.308,264.192 201.975,263.692 202.5,263C 201.718,260.26 201.218,257.426 201,254.5C 199.4,253.134 197.567,252.134 195.5,251.5C 194.876,249.246 193.543,247.579 191.5,246.5C 190.386,247.723 190.219,249.056 191,250.5C 193.886,252.634 196.553,254.968 199,257.5C 199.591,258.483 199.257,259.15 198,259.5C 191.872,256.895 188.206,252.228 187,245.5C 183.55,250.953 178.883,254.953 173,257.5C 172.5,257.167 172,256.833 171.5,256.5C 175.311,254.186 178.644,251.353 181.5,248C 177.696,245.198 174.196,242.031 171,238.5C 169.575,239.212 168.075,239.379 166.5,239C 163.021,241.312 160.021,244.146 157.5,247.5C 156.5,247.167 155.833,246.5 155.5,245.5C 160.065,241.723 164.398,237.723 168.5,233.5C 173.5,237.5 178.5,241.5 183.5,245.5C 184.711,243.578 186.044,241.745 187.5,240C 187.167,239.667 186.833,239.333 186.5,239C 188.96,237.542 191.127,235.709 193,233.5C 193.667,232.5 193.667,231.5 193,230.5C 191.759,232.421 190.259,232.754 188.5,231.5C 190.149,230.352 191.649,229.019 193,227.5C 193.749,226.365 193.583,225.365 192.5,224.5C 191.391,225.59 190.391,225.59 189.5,224.5C 190.347,223.155 191.513,222.155 193,221.5C 193.202,219.744 193.702,218.078 194.5,216.5C 195.339,219.674 197.005,222.341 199.5,224.5C 199.333,224.833 199.167,225.167 199,225.5C 194.828,222.408 193.828,223.074 196,227.5C 197.925,228.88 199.759,230.38 201.5,232C 199.299,232.825 197.466,232.325 196,230.5C 195.333,231.5 195.333,232.5 196,233.5C 197.873,235.709 200.04,237.542 202.5,239C 199.741,239.977 197.741,239.144 196.5,236.5C 195.049,240.991 195.383,245.324 197.5,249.5C 199.167,250.833 200.833,250.833 202.5,249.5C 205.147,245.426 205.98,241.093 205,236.5C 208.828,233.585 212.828,230.919 217,228.5C 217.821,225.446 217.655,222.446 216.5,219.5C 214.588,221.156 212.588,221.489 210.5,220.5C 212.576,218.712 214.743,217.046 217,215.5C 217.749,214.365 217.583,213.365 216.5,212.5C 214.902,213.485 213.235,213.651 211.5,213C 213.241,211.38 215.075,209.88 217,208.5C 217.483,207.552 217.649,206.552 217.5,205.5C 216.127,205.657 214.793,205.49 213.5,205C 216.507,202.834 218.507,200.001 219.5,196.5C 219.795,200.141 221.461,202.975 224.5,205C 223.216,205.684 222.049,205.517 221,204.5C 220.676,208.546 222.509,211.379 226.5,213C 224.299,213.825 222.466,213.325 221,211.5C 220.333,212.833 220.333,214.167 221,215.5C 223.074,217.452 225.241,219.285 227.5,221C 225.08,221.687 222.913,221.187 221,219.5C 220.764,221.764 220.264,223.931 219.5,226C 219.833,226.167 220.167,226.333 220.5,226.5C 228.833,221.667 237.167,216.833 245.5,212C 247.854,209.632 249.854,206.965 251.5,204C 254.014,202.748 256.68,202.248 259.5,202.5C 260.072,195.101 264.072,191.935 271.5,193C 278.431,198.446 281.598,196.612 281,187.5C 281.833,186.5 282.667,185.5 283.5,184.5C 282.325,188.94 282.325,193.606 283.5,198.5C 279.084,200.514 275.418,199.68 272.5,196C 264.714,194.944 260.714,198.444 260.5,206.5C 256.216,204.542 252.883,205.542 250.5,209.5C 256.187,211.061 261.52,213.394 266.5,216.5C 266.931,217.293 267.265,218.127 267.5,219C 265.954,220.473 264.954,222.306 264.5,224.5C 265.162,227.468 265.495,230.468 265.5,233.5C 268.833,233.5 272.167,233.5 275.5,233.5C 275.799,231.396 275.466,229.396 274.5,227.5C 273.032,229.333 271.365,229.666 269.5,228.5C 271.167,227.167 272.833,225.833 274.5,224.5C 275.59,223.391 275.59,222.391 274.5,221.5C 273.109,222.645 271.776,222.645 270.5,221.5C 272.193,219.973 274.027,218.64 276,217.5C 276.483,216.552 276.649,215.552 276.5,214.5C 271.579,214.865 271.245,213.865 275.5,211.5C 276.932,204.937 278.099,204.937 279,211.5C 280,212.167 281,212.833 282,213.5C 282.239,215.725 281.405,216.058 279.5,214.5C 279.167,215 278.833,215.5 278.5,216C 279.628,218.296 281.295,220.129 283.5,221.5C 281.741,222.754 280.241,222.421 279,220.5C 278.833,221 278.667,221.5 278.5,222C 280.112,224.616 282.112,226.95 284.5,229C 282.433,229.536 280.599,229.036 279,227.5C 278.333,229.5 278.333,231.5 279,233.5C 283.759,240.015 288.759,246.348 294,252.5C 295.444,250.845 297.278,250.178 299.5,250.5C 299.665,246.818 299.499,243.152 299,239.5C 296.607,241.367 294.107,242.034 291.5,241.5C 294.091,239.62 296.591,237.62 299,235.5C 299.667,234.167 299.667,232.833 299,231.5C 297.534,233.325 295.701,233.825 293.5,233C 295.043,231.122 296.876,229.622 299,228.5C 299.49,227.207 299.657,225.873 299.5,224.5C 294.425,225.395 294.258,224.062 299,220.5C 300.333,212.5 301.667,212.5 303,220.5C 304.353,221.685 305.52,223.019 306.5,224.5C 305.609,225.59 304.609,225.59 303.5,224.5C 302.386,225.723 302.219,227.056 303,228.5C 305.124,229.622 306.957,231.122 308.5,233C 306.299,233.825 304.466,233.325 303,231.5C 302.75,235.944 304.916,238.778 309.5,240C 310.64,241.973 311.973,243.807 313.5,245.5C 318.5,241.5 323.5,237.5 328.5,233.5C 331.743,237.782 335.743,241.115 340.5,243.5 Z"/></g>
<g><path style="opacity:1" fill="#434648" d="M 288.5,201.5 C 294.025,200.974 297.358,203.307 298.5,208.5C 301.278,208.022 303.278,209.022 304.5,211.5C 302.522,210.869 300.355,210.869 298,211.5C 297.163,205.995 293.997,203.828 288.5,205C 287.36,206.973 286.027,208.807 284.5,210.5C 283.386,209.277 283.219,207.944 284,206.5C 285.707,204.963 287.207,203.296 288.5,201.5 Z"/></g>
<g><path style="opacity:1" fill="#e6e6e6" d="M 244.5,214.5 C 248.135,214.656 248.468,215.822 245.5,218C 233.167,224.833 220.833,231.667 208.5,238.5C 208.167,238.167 207.833,237.833 207.5,237.5C 220.029,230.073 232.363,222.406 244.5,214.5 Z"/></g>
<g><path style="opacity:1" fill="#dfe0e0" d="M 250.5,212.5 C 255.89,212.863 260.557,214.863 264.5,218.5C 264.333,218.833 264.167,219.167 264,219.5C 260.605,217.02 256.772,215.52 252.5,215C 251.244,214.583 250.577,213.75 250.5,212.5 Z"/></g>
<g><path style="opacity:1" fill="#f0f0f0" d="M 249.5,216.5 C 253.534,217.4 257.367,218.734 261,220.5C 262.05,224.803 262.884,229.137 263.5,233.5C 260.482,233.335 257.482,233.502 254.5,234C 252.367,236.547 249.534,237.713 246,237.5C 235.162,238.389 224.329,238.889 213.5,239C 225.004,232.08 236.671,225.414 248.5,219C 249.252,218.329 249.586,217.496 249.5,216.5 Z"/></g>
<g><path style="opacity:1" fill="#313537" d="M 260.5,229.5 C 258.721,231.344 256.388,232.01 253.5,231.5C 253.5,228.833 253.5,226.167 253.5,223.5C 255.806,223.993 258.139,224.326 260.5,224.5C 260.5,226.167 260.5,227.833 260.5,229.5 Z"/></g>
<g><path style="opacity:1" fill="#34383a" d="M 240.5,226.5 C 241.583,226.539 242.583,226.873 243.5,227.5C 244.48,230.086 244.813,232.753 244.5,235.5C 238.811,235.532 233.145,235.866 227.5,236.5C 227.281,235.325 227.614,234.325 228.5,233.5C 232.891,231.645 236.891,229.311 240.5,226.5 Z"/></g>
<g><path style="opacity:1" fill="#757879" d="M 260.5,229.5 C 261.404,230.209 261.737,231.209 261.5,232.5C 258.615,232.806 255.948,232.473 253.5,231.5C 256.388,232.01 258.721,231.344 260.5,229.5 Z"/></g>
<g><path style="opacity:1" fill="#e0e1e1" d="M 255.5,235.5 C 263.34,235.036 271.007,235.536 278.5,237C 270.667,239.09 262.667,239.924 254.5,239.5C 254.433,238.041 254.766,236.708 255.5,235.5 Z"/></g>
<g><path style="opacity:1" fill="#e8e8e9" d="M 191.5,236.5 C 192.748,237.334 193.415,238.667 193.5,240.5C 193.333,241.833 193.167,243.167 193,244.5C 189.566,242.086 189.066,239.419 191.5,236.5 Z"/></g>
<g><path style="opacity:1" fill="#393d3f" d="M 168.5,240.5 C 170.338,243.924 173.005,246.758 176.5,249C 176,249.5 175.5,250 175,250.5C 172.523,249.015 170.356,247.181 168.5,245C 167.278,243.437 167.278,241.937 168.5,240.5 Z"/></g>
<g><path style="opacity:1" fill="#a5a7a8" d="M 221.5,241.5 C 226.64,240.512 231.974,240.179 237.5,240.5C 240.5,241.167 243.5,241.833 246.5,242.5C 243.167,242.5 239.833,242.5 236.5,242.5C 231.695,241.513 226.695,241.179 221.5,241.5 Z"/></g>
<g><path style="opacity:1" fill="#edeeee" d="M 302.5,239.5 C 307.057,240.659 307.391,242.325 303.5,244.5C 302.548,242.955 302.215,241.288 302.5,239.5 Z"/></g>
<g><path style="opacity:1" fill="#9d9fa0" d="M 342.5,241.5 C 341.833,242.167 341.167,242.833 340.5,243.5C 340.919,240.675 339.919,238.509 337.5,237C 340.163,237.152 341.83,238.652 342.5,241.5 Z"/></g>
<g><path style="opacity:1" fill="#f2f2f2" d="M 274.5,242.5 C 281.439,241.129 285.773,243.796 287.5,250.5C 283.774,250.823 280.107,250.489 276.5,249.5C 275.054,247.382 274.387,245.049 274.5,242.5 Z"/></g>
<g><path style="opacity:1" fill="#484c4d" d="M 311.5,250.5 C 313.099,252.604 314.932,254.604 317,256.5C 317.688,257.332 317.521,257.998 316.5,258.5C 313.139,256.822 311.472,254.155 311.5,250.5 Z"/></g>
<g><path style="opacity:1" fill="#45484a" d="M 184.5,250.5 C 185.716,254.064 184.382,256.731 180.5,258.5C 180.167,258.167 179.833,257.833 179.5,257.5C 181.58,255.427 183.246,253.093 184.5,250.5 Z"/></g>
<g><path style="opacity:1" fill="#f2f2f2" d="M 279.5,273.5 C 272.418,278.604 267.251,277.271 264,269.5C 260.522,265.338 256.356,264.504 251.5,267C 249.789,268.133 249.289,269.633 250,271.5C 252.559,268.651 255.726,267.817 259.5,269C 261.141,270.129 262.141,271.629 262.5,273.5C 263.601,274.848 264.601,276.348 265.5,278C 267.708,278.191 269.708,278.691 271.5,279.5C 269.833,279.5 268.167,279.5 266.5,279.5C 264.804,279.685 263.471,280.519 262.5,282C 259.166,283.212 256.666,282.379 255,279.5C 254.648,275.899 254.481,272.566 254.5,269.5C 253.335,270.491 252.168,271.491 251,272.5C 242.328,273.335 233.661,273.001 225,271.5C 220.485,266.848 214.985,265.348 208.5,267C 207.663,268.011 207.33,269.178 207.5,270.5C 205.396,270.799 203.396,270.466 201.5,269.5C 203.232,263.713 204.065,257.713 204,251.5C 205.504,248.316 207.004,245.149 208.5,242C 212.821,241.501 217.154,241.334 221.5,241.5C 226.695,241.179 231.695,241.513 236.5,242.5C 233.813,242.336 231.146,242.503 228.5,243C 227.62,244.356 227.286,245.856 227.5,247.5C 226.193,249.223 226.193,251.057 227.5,253C 233.681,253.819 239.681,253.653 245.5,252.5C 246.404,251.791 246.737,250.791 246.5,249.5C 240.879,250.354 235.212,250.687 229.5,250.5C 229.261,248.533 229.594,246.699 230.5,245C 235.155,244.501 239.821,244.334 244.5,244.5C 244.281,245.675 244.614,246.675 245.5,247.5C 246.452,245.955 246.785,244.288 246.5,242.5C 243.5,241.833 240.5,241.167 237.5,240.5C 245.34,240.619 253.173,240.953 261,241.5C 267.572,241.104 274.072,240.604 280.5,240C 270.484,240.508 268.817,244.674 275.5,252.5C 280.479,253.225 285.479,253.392 290.5,253C 290.957,253.414 291.291,253.914 291.5,254.5C 289.604,255.466 287.604,255.799 285.5,255.5C 285.5,256.5 285.5,257.5 285.5,258.5C 287.833,258.5 290.167,258.5 292.5,258.5C 292.26,261.579 292.593,264.579 293.5,267.5C 289.308,268.73 285.142,270.064 281,271.5C 279.97,271.836 279.47,272.503 279.5,273.5 Z"/></g>
<g><path style="opacity:1" fill="#9a9c9d" d="M 227.5,247.5 C 227.227,249.451 227.893,250.951 229.5,252C 234.823,252.499 240.156,252.666 245.5,252.5C 239.681,253.653 233.681,253.819 227.5,253C 226.193,251.057 226.193,249.223 227.5,247.5 Z"/></g>
<g><path style="opacity:1" fill="#363a3b" d="M 249.5,241.5 C 250.152,242.449 250.486,243.615 250.5,245C 249.956,252.508 249.289,260.008 248.5,267.5C 247.136,258.726 247.47,250.059 249.5,241.5 Z"/></g>
<g><path style="opacity:1" fill="#3b3f41" d="M 260.5,247.5 C 265.667,246.492 267.334,248.325 265.5,253C 263.866,253.494 262.199,253.66 260.5,253.5C 260.5,251.5 260.5,249.5 260.5,247.5 Z"/></g>
<g><path style="opacity:1" fill="#484b4d" d="M 253.5,242.5 C 258.179,242.334 262.845,242.501 267.5,243C 268.85,244.718 270.017,246.552 271,248.5C 271.833,251.667 270.667,252.833 267.5,252C 268.683,249.845 268.35,247.845 266.5,246C 262.514,245.501 258.514,245.334 254.5,245.5C 254.5,247.167 254.5,248.833 254.5,250.5C 256.429,250.231 258.095,250.731 259.5,252C 257.12,253.757 254.62,253.923 252,252.5C 251.786,249.066 252.286,245.733 253.5,242.5 Z"/></g>
<g><path style="opacity:1" fill="#424648" d="M 213.5,242.5 C 217.5,242.5 221.5,242.5 225.5,242.5C 224.949,245.807 224.616,249.14 224.5,252.5C 219.5,252.5 214.5,252.5 209.5,252.5C 209.862,248.741 211.195,245.407 213.5,242.5 Z"/></g>
<g><path style="opacity:1" fill="#fdfdfd" d="M 214.5,245.5 C 217.167,245.5 219.833,245.5 222.5,245.5C 222.714,247.144 222.38,248.644 221.5,250C 218.854,250.497 216.187,250.664 213.5,250.5C 213.366,248.708 213.699,247.042 214.5,245.5 Z"/></g>
<g><path style="opacity:1" fill="#333739" d="M 236.5,242.5 C 239.833,242.5 243.167,242.5 246.5,242.5C 246.785,244.288 246.452,245.955 245.5,247.5C 244.614,246.675 244.281,245.675 244.5,244.5C 239.821,244.334 235.155,244.501 230.5,245C 229.594,246.699 229.261,248.533 229.5,250.5C 235.212,250.687 240.879,250.354 246.5,249.5C 246.737,250.791 246.404,251.791 245.5,252.5C 240.156,252.666 234.823,252.499 229.5,252C 227.893,250.951 227.227,249.451 227.5,247.5C 227.286,245.856 227.62,244.356 228.5,243C 231.146,242.503 233.813,242.336 236.5,242.5 Z"/></g>
<g><path style="opacity:1" fill="#535758" d="M 186.5,254.5 C 187.867,256.093 187.534,257.426 185.5,258.5C 185.167,258.167 184.833,257.833 184.5,257.5C 185.193,256.482 185.859,255.482 186.5,254.5 Z"/></g>
<g><path style="opacity:1" fill="#404446" d="M 222.5,254.5 C 217.36,255.488 212.026,255.821 206.5,255.5C 205.957,255.44 205.624,255.107 205.5,254.5C 211.188,253.258 216.855,253.258 222.5,254.5 Z"/></g>
<g><path style="opacity:1" fill="#383c3e" d="M 224.5,263.5 C 224.5,260.5 224.5,257.5 224.5,254.5C 224.81,253.262 225.31,253.262 226,254.5C 226.667,259.833 226.667,265.167 226,270.5C 224.648,268.406 224.148,266.073 224.5,263.5 Z"/></g>
<g><path style="opacity:1" fill="#333739" d="M 227.5,254.5 C 233.206,254.171 238.872,254.505 244.5,255.5C 241.667,255.833 238.833,256.167 236,256.5C 232.748,256.481 229.915,255.814 227.5,254.5 Z"/></g>
<g><path style="opacity:1" fill="#56595b" d="M 309.5,254.5 C 311.728,255.322 312.395,256.655 311.5,258.5C 309.889,257.68 309.222,256.346 309.5,254.5 Z"/></g>
<g><path style="opacity:1" fill="#727576" d="M 222.5,254.5 C 223.167,254.5 223.833,254.5 224.5,254.5C 224.5,257.5 224.5,260.5 224.5,263.5C 223.532,261.393 223.198,259.059 223.5,256.5C 217.642,256.822 211.975,256.489 206.5,255.5C 212.026,255.821 217.36,255.488 222.5,254.5 Z"/></g>
<g><path style="opacity:1" fill="#727576" d="M 274.5,257.5 C 273.075,255.969 272.409,256.302 272.5,258.5C 265.887,257.869 259.221,257.202 252.5,256.5C 252.833,256.167 253.167,255.833 253.5,255.5C 260.116,254.372 266.782,254.205 273.5,255C 274.252,255.671 274.586,256.504 274.5,257.5 Z"/></g>
<g><path style="opacity:1" fill="#44484a" d="M 280.5,256.5 C 281.5,256.5 282.5,256.5 283.5,256.5C 282.754,260.31 281.754,260.31 280.5,256.5 Z"/></g>
<g><path style="opacity:1" fill="#474a4c" d="M 274.5,257.5 C 274.644,261.511 274.977,265.511 275.5,269.5C 275.588,271.712 275.088,273.712 274,275.5C 272.551,270.019 272.051,264.352 272.5,258.5C 272.409,256.302 273.075,255.969 274.5,257.5 Z"/></g>
<g><path style="opacity:1" fill="#434648" d="M 288.5,259.5 C 290.337,259.639 290.67,260.306 289.5,261.5C 288.702,261.043 288.369,260.376 288.5,259.5 Z"/></g>
<g><path style="opacity:1" fill="#4b4f50" d="M 280.5,261.5 C 282.167,261.5 283.833,261.5 285.5,261.5C 287.485,264.86 286.652,267.193 283,268.5C 282.228,268.355 281.561,268.022 281,267.5C 280.505,265.527 280.338,263.527 280.5,261.5 Z"/></g>
<g><path style="opacity:1" fill="#444849" d="M 300.5,260.5 C 303.012,261.216 303.012,262.216 300.5,263.5C 299.438,262.575 299.438,261.575 300.5,260.5 Z"/></g>
<g><path style="opacity:1" fill="#494c4e" d="M 192.5,263.5 C 193.995,263.415 194.995,264.081 195.5,265.5C 193.604,266.639 192.604,265.973 192.5,263.5 Z"/></g>
<g><path style="opacity:1" fill="#434749" d="M 302.5,263.5 C 305.012,264.216 305.012,265.216 302.5,266.5C 301.438,265.575 301.438,264.575 302.5,263.5 Z"/></g>
<g><path style="opacity:1" fill="#3d4143" d="M 279.5,273.5 C 279.5,274.5 279.5,275.5 279.5,276.5C 281.591,276.682 283.591,276.348 285.5,275.5C 286.386,276.325 286.719,277.325 286.5,278.5C 281.537,278.364 276.537,278.698 271.5,279.5C 269.708,278.691 267.708,278.191 265.5,278C 264.601,276.348 263.601,274.848 262.5,273.5C 262.141,271.629 261.141,270.129 259.5,269C 255.726,267.817 252.559,268.651 250,271.5C 249.289,269.633 249.789,268.133 251.5,267C 256.356,264.504 260.522,265.338 264,269.5C 267.251,277.271 272.418,278.604 279.5,273.5 Z"/></g>
<g><path style="opacity:1" fill="#dadbdb" d="M 222.5,274.5 C 222.5,275.5 222.5,276.5 222.5,277.5C 221.778,277.082 221.278,276.416 221,275.5C 218.738,278.966 216.238,279.3 213.5,276.5C 213.435,274.304 212.768,272.304 211.5,270.5C 210.893,270.624 210.56,270.957 210.5,271.5C 210.167,271.5 209.833,271.5 209.5,271.5C 209.414,270.504 209.748,269.671 210.5,269C 214.107,268.203 217.274,269.036 220,271.5C 221.666,270.66 221.833,271.16 220.5,273C 221.416,273.278 222.082,273.778 222.5,274.5 Z"/></g>
<g><path style="opacity:1" fill="#55585a" d="M 193.5,270.5 C 195.888,271.219 197.388,272.885 198,275.5C 198.774,277.403 198.44,279.07 197,280.5C 195.53,277.292 194.363,273.959 193.5,270.5 Z"/></g>
<g><path style="opacity:1" fill="#606364" d="M 301.5,270.5 C 304.041,271.623 304.041,272.956 301.5,274.5C 300.374,273.192 300.374,271.858 301.5,270.5 Z"/></g>
<g><path style="opacity:1" fill="#424648" d="M 215.5,271.5 C 216.995,271.415 217.995,272.081 218.5,273.5C 216.65,274.242 215.984,275.242 216.5,276.5C 215.548,274.955 215.215,273.288 215.5,271.5 Z"/></g>
<g><path style="opacity:1" fill="#3a3e40" d="M 262.5,273.5 C 262.66,275.199 262.494,276.866 262,278.5C 260.951,279.517 259.784,279.684 258.5,279C 256.321,274.085 257.654,272.251 262.5,273.5 Z"/></g>
<g><path style="opacity:1" fill="#464a4b" d="M 205.5,273.5 C 206.012,276.632 206.012,279.965 205.5,283.5C 204.5,283.5 203.5,283.5 202.5,283.5C 202.307,279.752 203.307,276.418 205.5,273.5 Z"/></g>
<g><path style="opacity:1" fill="#7e8182" d="M 213.5,276.5 C 212.508,276.328 211.842,276.662 211.5,277.5C 210.539,275.735 210.205,273.735 210.5,271.5C 210.56,270.957 210.893,270.624 211.5,270.5C 212.768,272.304 213.435,274.304 213.5,276.5 Z"/></g>
<g><path style="opacity:1" fill="#464a4c" d="M 200.5,275.5 C 201.793,277.364 201.793,279.364 200.5,281.5C 199.306,279.484 199.306,277.484 200.5,275.5 Z"/></g>
<g><path style="opacity:1" fill="#404445" d="M 222.5,277.5 C 218.924,282.701 215.257,282.701 211.5,277.5C 211.842,276.662 212.508,276.328 213.5,276.5C 216.238,279.3 218.738,278.966 221,275.5C 221.278,276.416 221.778,277.082 222.5,277.5 Z"/></g>
<g><path style="opacity:1" fill="#46494b" d="M 295.5,275.5 C 296.478,275.811 297.145,276.478 297.5,277.5C 296.167,278.5 296.167,279.5 297.5,280.5C 296.743,281.773 296.077,281.773 295.5,280.5C 295.5,278.833 295.5,277.167 295.5,275.5 Z"/></g>
<g><path style="opacity:1" fill="#525557" d="M 298.5,275.5 C 299.675,275.281 300.675,275.614 301.5,276.5C 299.619,283.014 298.619,282.681 298.5,275.5 Z"/></g>
<g><path style="opacity:1" fill="#989b9b" d="M 295.5,274.5 C 295.5,274.833 295.5,275.167 295.5,275.5C 295.5,277.167 295.5,278.833 295.5,280.5C 294.768,281.808 293.934,283.142 293,284.5C 291.961,283.756 291.461,282.756 291.5,281.5C 292.941,279.276 294.274,276.942 295.5,274.5 Z"/></g>
<g><path style="opacity:1" fill="#44484a" d="M 208.5,283.5 C 209.675,283.281 210.675,283.614 211.5,284.5C 209.948,285.798 208.948,285.465 208.5,283.5 Z"/></g>
<g><path style="opacity:1" fill="#333739" d="M 232.5,283.5 C 236.884,283.174 241.217,283.508 245.5,284.5C 243.333,284.833 241.167,285.167 239,285.5C 236.39,285.467 234.223,284.8 232.5,283.5 Z"/></g>
<g><path style="opacity:1" fill="#424648" d="M 285.5,283.5 C 286.675,283.281 287.675,283.614 288.5,284.5C 286.948,285.798 285.948,285.465 285.5,283.5 Z"/></g>
<g><path style="opacity:1" fill="#3d4143" d="M 260.5,290.5 C 259.5,290.833 258.833,291.5 258.5,292.5C 257.181,290.395 257.514,288.395 259.5,286.5C 260.429,287.689 260.762,289.022 260.5,290.5 Z"/></g>
<g><path style="opacity:1" fill="#525657" d="M 254.5,283.5 C 255.447,285.734 256.114,288.068 256.5,290.5C 256.167,291.5 255.833,292.5 255.5,293.5C 253.997,292.948 252.331,292.948 250.5,293.5C 250.481,291.94 250.148,290.44 249.5,289C 251.164,287.233 252.331,287.733 253,290.5C 253.687,288.08 253.187,285.913 251.5,284C 252.448,283.517 253.448,283.351 254.5,283.5 Z"/></g>
<g><path style="opacity:1" fill="#4d5052" d="M 227.5,290.5 C 228.675,290.281 229.675,290.614 230.5,291.5C 228.87,294.276 228.203,297.276 228.5,300.5C 227.5,300.5 226.5,300.5 225.5,300.5C 226.04,297.135 226.706,293.802 227.5,290.5 Z"/></g>
<g><path style="opacity:1" fill="#323537" d="M 261.5,290.5 C 263.483,290.157 264.817,290.824 265.5,292.5C 263.801,292.66 262.134,292.494 260.5,292C 261.056,291.617 261.389,291.117 261.5,290.5 Z"/></g>
<g><path style="opacity:1" fill="#919394" d="M 260.5,290.5 C 260.833,290.5 261.167,290.5 261.5,290.5C 261.389,291.117 261.056,291.617 260.5,292C 262.134,292.494 263.801,292.66 265.5,292.5C 263.274,293.756 260.941,293.756 258.5,292.5C 258.833,291.5 259.5,290.833 260.5,290.5 Z"/></g>
<g><path style="opacity:1" fill="#3d4143" d="M 276.5,293.5 C 279.889,294.691 283.222,296.191 286.5,298C 287.849,299.635 287.682,301.135 286,302.5C 283.933,299.93 281.433,297.93 278.5,296.5C 276.021,298.076 273.354,299.076 270.5,299.5C 269.217,304.703 266.384,309.037 262,312.5C 262.611,309.967 263.111,307.3 263.5,304.5C 258.605,305.541 254.939,308.374 252.5,313C 251.5,313.5 250.5,314 249.5,314.5C 245.906,312.983 242.906,313.816 240.5,317C 244.673,318.537 248.673,320.37 252.5,322.5C 254.05,321.268 255.717,320.768 257.5,321C 258.665,322.084 259.998,322.917 261.5,323.5C 262.386,324.325 262.719,325.325 262.5,326.5C 260.071,326.415 258.071,325.415 256.5,323.5C 253.859,324.71 251.193,324.71 248.5,323.5C 245.167,325.5 241.833,327.5 238.5,329.5C 237.068,329.267 236.568,328.6 237,327.5C 239.087,326.206 241.254,325.039 243.5,324C 244.646,321.443 243.646,320.11 240.5,320C 237.622,316.104 233.955,313.437 229.5,312C 226.313,305.968 224.313,306.468 223.5,313.5C 221.897,313.688 220.563,313.188 219.5,312C 221.167,309.667 222.833,307.333 224.5,305C 225.635,304.251 226.635,304.417 227.5,305.5C 230.772,309.025 234.438,312.025 238.5,314.5C 240.833,313.167 243.167,311.833 245.5,310.5C 247.098,311.485 248.765,311.651 250.5,311C 253.357,306.643 257.023,303.143 261.5,300.5C 266.189,305.103 268.689,304.103 269,297.5C 272.005,296.973 274.505,295.64 276.5,293.5 Z"/></g>
<g><path style="opacity:1" fill="#414547" d="M 219.5,290.5 C 223.895,292.97 225.228,296.637 223.5,301.5C 221.871,297.915 220.538,294.248 219.5,290.5 Z"/></g>
<g><path style="opacity:1" fill="#4e5254" d="M 217.5,294.5 C 220.288,296.225 221.288,298.558 220.5,301.5C 219.17,299.907 217.836,298.24 216.5,296.5C 216.863,295.817 217.196,295.15 217.5,294.5 Z"/></g>
<g><path style="opacity:1" fill="#2e3334" d="M 230.5,297.5 C 234.555,297.176 238.555,297.509 242.5,298.5C 240.5,298.833 238.5,299.167 236.5,299.5C 234.048,299.461 232.048,298.794 230.5,297.5 Z"/></g>
<g><path style="opacity:1" fill="#343839" d="M 244.5,297.5 C 246.337,297.639 246.67,298.306 245.5,299.5C 244.702,299.043 244.369,298.376 244.5,297.5 Z"/></g>
<g><path style="opacity:1" fill="#434749" d="M 276.5,302.5 C 274.233,305.271 271.733,307.938 269,310.5C 268.333,309.5 268.333,308.5 269,307.5C 271.706,305.129 274.039,302.463 276,299.5C 276.483,300.448 276.649,301.448 276.5,302.5 Z"/></g>
<g><path style="opacity:1" fill="#494d4e" d="M 276.5,302.5 C 278.973,302.947 279.14,303.947 277,305.5C 276.517,304.552 276.351,303.552 276.5,302.5 Z"/></g>
<g><path style="opacity:1" fill="#404446" d="M 258.5,313.5 C 259.776,314.386 259.776,315.386 258.5,316.5C 257.438,315.575 257.438,314.575 258.5,313.5 Z"/></g>
<g><path style="opacity:1" fill="#393d3f" d="M 277.5,334.5 C 278.5,334.5 279.5,334.5 280.5,334.5C 280.762,335.978 280.429,337.311 279.5,338.5C 276.209,339.382 272.876,340.048 269.5,340.5C 269.575,343.206 269.908,345.873 270.5,348.5C 273.58,348.252 276.58,347.586 279.5,346.5C 281.167,346.833 282.167,347.833 282.5,349.5C 279.367,350.933 276.2,352.266 273,353.5C 273.565,356.404 274.065,359.404 274.5,362.5C 278.678,361.645 282.678,360.311 286.5,358.5C 288.596,359.62 288.93,361.12 287.5,363C 283.011,364.496 278.511,365.996 274,367.5C 270.575,360.569 267.909,353.236 266,345.5C 265.333,343.167 265.333,340.833 266,338.5C 269.795,336.768 273.629,335.435 277.5,334.5 Z"/></g>
<g><path style="opacity:1" fill="#3c4042" d="M 237.5,338.5 C 238.5,338.5 239.5,338.5 240.5,338.5C 241.022,346.067 240.022,353.4 237.5,360.5C 238.396,362.801 238.562,365.134 238,367.5C 236.644,368.38 235.144,368.714 233.5,368.5C 233.955,358.367 235.288,348.367 237.5,338.5 Z"/></g>
<g><path style="opacity:1" fill="#34383a" d="M 247.5,339.5 C 252.762,339.195 257.928,339.529 263,340.5C 263.617,341.449 263.451,342.282 262.5,343C 258.514,343.499 254.514,343.666 250.5,343.5C 250.5,346.167 250.5,348.833 250.5,351.5C 253.833,351.5 257.167,351.5 260.5,351.5C 260.5,352.833 260.5,354.167 260.5,355.5C 257.119,355.46 253.786,355.793 250.5,356.5C 250.5,360.833 250.5,365.167 250.5,369.5C 249.178,369.67 248.011,369.337 247,368.5C 246.194,358.756 246.361,349.089 247.5,339.5 Z"/></g>
<g><path style="opacity:1" fill="#3b3f41" d="M 218.5,334.5 C 220.346,334.222 221.68,334.889 222.5,336.5C 219.468,344.675 217.468,353.008 216.5,361.5C 220.325,361.885 223.991,362.885 227.5,364.5C 227.291,365.086 226.957,365.586 226.5,366C 221.344,366.919 216.511,366.086 212,363.5C 211.799,360.485 212.132,357.485 213,354.5C 213.5,352.667 214.667,351.5 216.5,351C 215.965,345.446 216.631,339.946 218.5,334.5 Z"/></g>
</svg>
